<mxfile host="app.diagrams.net" modified="2022-03-02T21:06:58.574Z" agent="5.0 (Windows NT 10.0; Win64; x64) AppleWebKit/537.36 (KHTML, like Gecko) Chrome/98.0.4758.102 Safari/537.36" etag="8EG-vH5qKlRinFdEbSJQ" version="16.6.5" type="github">
  <diagram id="UmtAVe4m9SLeGNtd2oap" name="Page-1">
    <mxGraphModel dx="1240" dy="643" grid="1" gridSize="10" guides="1" tooltips="1" connect="1" arrows="1" fold="1" page="1" pageScale="1" pageWidth="1169" pageHeight="1654" math="0" shadow="0">
      <root>
        <mxCell id="0" />
        <mxCell id="1" parent="0" />
        <mxCell id="8y1JmYtrmVvgFGr0oRCe-1" value="" style="rounded=0;whiteSpace=wrap;html=1;" vertex="1" parent="1">
          <mxGeometry x="305" y="120" width="120" height="60" as="geometry" />
        </mxCell>
        <mxCell id="8y1JmYtrmVvgFGr0oRCe-2" value="&lt;h1 style=&quot;font-size: 18px&quot;&gt;User&lt;/h1&gt;" style="rounded=0;whiteSpace=wrap;html=1;fillColor=#F5AB50;strokeColor=#909090;fontColor=#1A1A1A;" vertex="1" parent="1">
          <mxGeometry x="415" y="180" width="170" height="80" as="geometry" />
        </mxCell>
        <mxCell id="8y1JmYtrmVvgFGr0oRCe-3" style="edgeStyle=orthogonalEdgeStyle;curved=0;rounded=1;sketch=0;orthogonalLoop=1;jettySize=auto;html=1;entryX=0;entryY=0.625;entryDx=0;entryDy=0;entryPerimeter=0;fontColor=#1A1A1A;strokeColor=#182E3E;endArrow=none;endFill=0;" edge="1" parent="1" target="8y1JmYtrmVvgFGr0oRCe-2">
          <mxGeometry relative="1" as="geometry">
            <mxPoint x="385" y="400" as="sourcePoint" />
            <Array as="points">
              <mxPoint x="395" y="400" />
              <mxPoint x="395" y="230" />
            </Array>
          </mxGeometry>
        </mxCell>
        <mxCell id="8y1JmYtrmVvgFGr0oRCe-4" value="&lt;u&gt;name&lt;/u&gt;" style="ellipse;whiteSpace=wrap;html=1;fontSize=18;fillColor=#F5AB50;strokeColor=#909090;fontColor=#1A1A1A;" vertex="1" parent="1">
          <mxGeometry x="270" y="360" width="120" height="80" as="geometry" />
        </mxCell>
        <mxCell id="8y1JmYtrmVvgFGr0oRCe-5" style="edgeStyle=orthogonalEdgeStyle;curved=0;rounded=1;sketch=0;orthogonalLoop=1;jettySize=auto;html=1;fontSize=18;fontColor=#1A1A1A;startArrow=none;startFill=0;endArrow=none;endFill=0;strokeColor=#182E3E;strokeWidth=1;" edge="1" parent="1" source="8y1JmYtrmVvgFGr0oRCe-6" target="8y1JmYtrmVvgFGr0oRCe-2">
          <mxGeometry relative="1" as="geometry" />
        </mxCell>
        <mxCell id="8y1JmYtrmVvgFGr0oRCe-6" value="birth-date" style="ellipse;whiteSpace=wrap;html=1;fontSize=18;fillColor=#F5AB50;strokeColor=#909090;fontColor=#1A1A1A;" vertex="1" parent="1">
          <mxGeometry x="440" y="30" width="120" height="80" as="geometry" />
        </mxCell>
        <mxCell id="8y1JmYtrmVvgFGr0oRCe-7" style="edgeStyle=orthogonalEdgeStyle;curved=0;rounded=1;sketch=0;orthogonalLoop=1;jettySize=auto;html=1;entryX=1;entryY=0.5;entryDx=0;entryDy=0;fontSize=18;fontColor=#1A1A1A;startArrow=none;startFill=0;endArrow=none;endFill=0;strokeColor=#182E3E;strokeWidth=1;" edge="1" parent="1" source="8y1JmYtrmVvgFGr0oRCe-8" target="8y1JmYtrmVvgFGr0oRCe-2">
          <mxGeometry relative="1" as="geometry">
            <Array as="points">
              <mxPoint x="605" y="400" />
              <mxPoint x="605" y="220" />
            </Array>
          </mxGeometry>
        </mxCell>
        <mxCell id="8y1JmYtrmVvgFGr0oRCe-8" value="join-date" style="ellipse;whiteSpace=wrap;html=1;fontSize=18;fillColor=#F5AB50;strokeColor=#909090;fontColor=#1A1A1A;" vertex="1" parent="1">
          <mxGeometry x="620" y="360" width="120" height="80" as="geometry" />
        </mxCell>
        <mxCell id="8y1JmYtrmVvgFGr0oRCe-9" style="edgeStyle=orthogonalEdgeStyle;curved=0;rounded=1;sketch=0;orthogonalLoop=1;jettySize=auto;html=1;fontSize=18;fontColor=#1A1A1A;strokeColor=#182E3E;endArrow=none;endFill=0;entryX=0;entryY=0.625;entryDx=0;entryDy=0;entryPerimeter=0;" edge="1" parent="1" source="8y1JmYtrmVvgFGr0oRCe-10" target="8y1JmYtrmVvgFGr0oRCe-2">
          <mxGeometry relative="1" as="geometry">
            <mxPoint x="395" y="280" as="targetPoint" />
          </mxGeometry>
        </mxCell>
        <mxCell id="8y1JmYtrmVvgFGr0oRCe-10" value="&lt;font style=&quot;font-size: 18px&quot;&gt;Avaliablity&lt;/font&gt;" style="ellipse;whiteSpace=wrap;html=1;rounded=0;sketch=0;fontColor=#1A1A1A;strokeColor=#909090;fillColor=#F5AB50;" vertex="1" parent="1">
          <mxGeometry x="125" y="190" width="120" height="80" as="geometry" />
        </mxCell>
        <mxCell id="8y1JmYtrmVvgFGr0oRCe-11" style="edgeStyle=orthogonalEdgeStyle;curved=0;rounded=1;sketch=0;orthogonalLoop=1;jettySize=auto;html=1;entryX=1;entryY=0.5;entryDx=0;entryDy=0;fontSize=18;fontColor=#1A1A1A;endArrow=none;endFill=0;strokeColor=#182E3E;strokeWidth=1;startArrow=ERzeroToMany;startFill=0;" edge="1" parent="1" source="8y1JmYtrmVvgFGr0oRCe-12" target="8y1JmYtrmVvgFGr0oRCe-2">
          <mxGeometry relative="1" as="geometry" />
        </mxCell>
        <mxCell id="8y1JmYtrmVvgFGr0oRCe-12" value="Likes" style="ellipse;whiteSpace=wrap;html=1;rounded=0;sketch=0;fontSize=18;fontColor=#1A1A1A;strokeColor=#909090;fillColor=#F5AB50;" vertex="1" parent="1">
          <mxGeometry x="755" y="240" width="120" height="80" as="geometry" />
        </mxCell>
        <mxCell id="8y1JmYtrmVvgFGr0oRCe-13" style="edgeStyle=orthogonalEdgeStyle;curved=0;rounded=1;sketch=0;orthogonalLoop=1;jettySize=auto;html=1;entryX=1;entryY=0.5;entryDx=0;entryDy=0;fontSize=18;fontColor=#1A1A1A;startArrow=ERzeroToMany;startFill=0;endArrow=none;endFill=0;strokeColor=#182E3E;strokeWidth=1;" edge="1" parent="1" source="8y1JmYtrmVvgFGr0oRCe-14" target="8y1JmYtrmVvgFGr0oRCe-2">
          <mxGeometry relative="1" as="geometry" />
        </mxCell>
        <mxCell id="8y1JmYtrmVvgFGr0oRCe-14" value="Friends" style="ellipse;whiteSpace=wrap;html=1;rounded=0;sketch=0;fontSize=18;fontColor=#1A1A1A;strokeColor=#909090;fillColor=#F5AB50;" vertex="1" parent="1">
          <mxGeometry x="755" y="120" width="120" height="80" as="geometry" />
        </mxCell>
        <mxCell id="8y1JmYtrmVvgFGr0oRCe-15" value="Group" style="rounded=0;whiteSpace=wrap;html=1;sketch=0;fontSize=18;fontColor=#1A1A1A;strokeColor=#909090;fillColor=#F5AB50;" vertex="1" parent="1">
          <mxGeometry x="440" y="630" width="120" height="60" as="geometry" />
        </mxCell>
        <mxCell id="8y1JmYtrmVvgFGr0oRCe-16" style="edgeStyle=orthogonalEdgeStyle;curved=0;rounded=1;sketch=0;orthogonalLoop=1;jettySize=auto;html=1;fontSize=18;fontColor=#1A1A1A;startArrow=none;startFill=0;endArrow=none;endFill=0;strokeColor=#182E3E;strokeWidth=1;" edge="1" parent="1" source="8y1JmYtrmVvgFGr0oRCe-17" target="8y1JmYtrmVvgFGr0oRCe-15">
          <mxGeometry relative="1" as="geometry" />
        </mxCell>
        <mxCell id="8y1JmYtrmVvgFGr0oRCe-17" value="&lt;u&gt;Name&lt;/u&gt;" style="ellipse;whiteSpace=wrap;html=1;rounded=0;sketch=0;fontSize=18;fontColor=#1A1A1A;strokeColor=#909090;fillColor=#F5AB50;" vertex="1" parent="1">
          <mxGeometry x="250" y="620" width="120" height="80" as="geometry" />
        </mxCell>
        <mxCell id="8y1JmYtrmVvgFGr0oRCe-18" style="edgeStyle=orthogonalEdgeStyle;curved=0;rounded=1;sketch=0;orthogonalLoop=1;jettySize=auto;html=1;fontSize=18;fontColor=#1A1A1A;startArrow=none;startFill=0;endArrow=none;endFill=0;strokeColor=#182E3E;strokeWidth=1;" edge="1" parent="1" target="8y1JmYtrmVvgFGr0oRCe-15">
          <mxGeometry relative="1" as="geometry">
            <mxPoint x="500" y="560" as="sourcePoint" />
          </mxGeometry>
        </mxCell>
        <mxCell id="8y1JmYtrmVvgFGr0oRCe-19" style="edgeStyle=orthogonalEdgeStyle;curved=0;rounded=1;sketch=0;orthogonalLoop=1;jettySize=auto;html=1;fontSize=18;fontColor=#1A1A1A;startArrow=none;startFill=0;endArrow=none;endFill=0;strokeColor=#182E3E;strokeWidth=1;" edge="1" parent="1" source="8y1JmYtrmVvgFGr0oRCe-20" target="8y1JmYtrmVvgFGr0oRCe-15">
          <mxGeometry relative="1" as="geometry" />
        </mxCell>
        <mxCell id="8y1JmYtrmVvgFGr0oRCe-20" value="Privacy" style="ellipse;whiteSpace=wrap;html=1;rounded=0;sketch=0;fontSize=18;fontColor=#1A1A1A;strokeColor=#909090;fillColor=#F5AB50;" vertex="1" parent="1">
          <mxGeometry x="440" y="747" width="120" height="80" as="geometry" />
        </mxCell>
        <mxCell id="8y1JmYtrmVvgFGr0oRCe-21" style="edgeStyle=orthogonalEdgeStyle;curved=0;rounded=1;sketch=0;orthogonalLoop=1;jettySize=auto;html=1;fontSize=18;fontColor=#1A1A1A;startArrow=none;startFill=0;endArrow=none;endFill=0;strokeColor=#182E3E;strokeWidth=1;" edge="1" parent="1" source="8y1JmYtrmVvgFGr0oRCe-22" target="8y1JmYtrmVvgFGr0oRCe-15">
          <mxGeometry relative="1" as="geometry" />
        </mxCell>
        <mxCell id="8y1JmYtrmVvgFGr0oRCe-22" value="Description" style="ellipse;whiteSpace=wrap;html=1;rounded=0;sketch=0;fontSize=18;fontColor=#1A1A1A;strokeColor=#909090;fillColor=#F5AB50;" vertex="1" parent="1">
          <mxGeometry x="620" y="620" width="120" height="80" as="geometry" />
        </mxCell>
        <mxCell id="8y1JmYtrmVvgFGr0oRCe-23" style="edgeStyle=orthogonalEdgeStyle;curved=0;rounded=1;sketch=0;orthogonalLoop=1;jettySize=auto;html=1;entryX=0.5;entryY=1;entryDx=0;entryDy=0;fontSize=18;fontColor=#1A1A1A;startArrow=none;startFill=0;endArrow=ERmandOne;endFill=0;strokeColor=#182E3E;strokeWidth=1;" edge="1" parent="1" source="8y1JmYtrmVvgFGr0oRCe-24" target="8y1JmYtrmVvgFGr0oRCe-2">
          <mxGeometry relative="1" as="geometry" />
        </mxCell>
        <mxCell id="8y1JmYtrmVvgFGr0oRCe-24" value="&lt;font face=&quot;helvetica&quot;&gt;Admin&lt;br&gt;&lt;/font&gt;" style="rhombus;whiteSpace=wrap;html=1;rounded=0;sketch=0;fontSize=18;fontColor=#1A1A1A;strokeColor=#909090;fillColor=#F5AB50;" vertex="1" parent="1">
          <mxGeometry x="460" y="480" width="80" height="80" as="geometry" />
        </mxCell>
      </root>
    </mxGraphModel>
  </diagram>
</mxfile>
